<svg width="64" height="64" viewBox="0 0 64 64" fill="none" xmlns="http://www.w3.org/2000/svg">
<path fill-rule="evenodd" clip-rule="evenodd" d="M16 5.5873V58.4127C16 61.4985 18.4624 64 21.5 64H58.5C61.5376 64 64 61.4985 64 58.4127V14.7025C64 13.21 63.4122 11.7796 62.3677 10.7301L53.2957 1.61483C52.266 0.58026 50.8762 0 49.428 0H21.5C18.4624 0 16 2.50152 16 5.5873ZM19.5 58.4127V5.5873C19.5 4.4652 20.3954 3.55556 21.5 3.55556H48.75V15.746C48.75 17.85 50.4289 19.5556 52.5 19.5556H60.5V58.4127C60.5 59.5348 59.6046 60.4444 58.5 60.4444H21.5C20.3954 60.4444 19.5 59.5348 19.5 58.4127ZM60.5 16V14.7025C60.5 14.1598 60.2863 13.6396 59.9064 13.258L52.25 5.56509V15.746C52.25 15.8863 52.3619 16 52.5 16H60.5Z" fill="#9D9C9B"/>
<path d="M40 48C48 48 52 44 52 36H44V28H40V36V48Z" fill="#E48762"/>
<path d="M48 32V24C51 24 56 29 56 32H48Z" fill="#F9D4C4"/>
<path d="M0 18.5C0 16.8431 1.34315 15.5 3 15.5H33C34.6569 15.5 36 16.8431 36 18.5V48.5C36 50.1569 34.6569 51.5 33 51.5H3C1.34315 51.5 0 50.1569 0 48.5V18.5Z" fill="#C25B33"/>
<path d="M12 43.043V23H17.332C19.319 23 20.6178 23.0957 21.2285 23.2871C22.2038 23.597 23.0059 24.2578 23.6348 25.2695C24.2728 26.2812 24.5918 27.5846 24.5918 29.1797C24.5918 30.6289 24.3184 31.8457 23.7715 32.8301C23.2246 33.8053 22.541 34.4935 21.7207 34.8945C20.9004 35.2865 19.4876 35.4824 17.4824 35.4824H15.3086V43.043H12ZM15.3086 26.3906V32.0781H17.1406C18.3711 32.0781 19.2051 31.9915 19.6426 31.8184C20.0892 31.6452 20.4538 31.3353 20.7363 30.8887C21.0189 30.4329 21.1602 29.877 21.1602 29.2207C21.1602 28.5553 21.0143 27.9948 20.7227 27.5391C20.431 27.0833 20.071 26.778 19.6426 26.623C19.2142 26.4681 18.3073 26.3906 16.9219 26.3906H15.3086Z" fill="white"/>
</svg>
