<svg width="64" height="64" viewBox="0 0 64 64" fill="none" xmlns="http://www.w3.org/2000/svg">
<path fill-rule="evenodd" clip-rule="evenodd" d="M8 5.5873V58.4127C8 61.4985 10.4624 64 13.5 64H50.5C53.5376 64 56 61.4985 56 58.4127V14.7025C56 13.21 55.4122 11.7796 54.3677 10.7301L45.2957 1.61483C44.266 0.58026 42.8762 0 41.428 0H13.5C10.4624 0 8 2.50152 8 5.5873ZM11.5 58.4127V5.5873C11.5 4.4652 12.3954 3.55556 13.5 3.55556H40.75V15.746C40.75 17.85 42.4289 19.5556 44.5 19.5556H52.5V58.4127C52.5 59.5348 51.6046 60.4444 50.5 60.4444H13.5C12.3954 60.4444 11.5 59.5348 11.5 58.4127ZM52.5 16V14.7025C52.5 14.1598 52.2863 13.6396 51.9064 13.258L44.25 5.56509V15.746C44.25 15.8863 44.3619 16 44.5 16H52.5Z" fill="#9D9C9B"/>
<path fill-rule="evenodd" clip-rule="evenodd" d="M16 26C16 24.5 16.5 24 18 24H46C47.5 24 48 24.5 48 26C48 27.5 47.5 28 46 28H18C16.5 28 16 27.5 16 26Z" fill="#C9C7C5"/>
<path fill-rule="evenodd" clip-rule="evenodd" d="M16 34C16 32.5 16.5 32 18 32H46C47.5 32 48 32.5 48 34C48 35.5 47.5 36 46 36H18C16.5 36 16 35.5 16 34Z" fill="#C9C7C5"/>
<path fill-rule="evenodd" clip-rule="evenodd" d="M16 42C16 40.5 16.5 40 18 40H46C47.5 40 48 40.5 48 42C48 43.5 47.5 44 46 44H18C16.5 44 16 43.5 16 42Z" fill="#C9C7C5"/>
<path fill-rule="evenodd" clip-rule="evenodd" d="M16 50C16 48.5 16.5 48 18 48H46C47.5 48 48 48.5 48 50C48 51.5 47.5 52 46 52H18C16.5 52 16 51.5 16 50Z" fill="#C9C7C5"/>
</svg>
